<svg width="330" height="58" viewBox="0 0 330 58" fill="none" xmlns="http://www.w3.org/2000/svg">
<path d="M25.1712 0.899849C21.3054 0.167799 17.3013 0.349435 13.5682 1.58786C7.69546 3.5377 0.854528 8.50656 0.265318 21.0271C-0.78309 43.2872 11.127 54.989 28.1436 57.3681C41.0066 59.1666 49.6815 45.8204 53.1477 39.2045C54.9281 35.839 55.8356 32.0844 55.788 28.2815C55.6414 19.6249 51.1034 5.80816 25.1712 0.899849Z" fill="url(#paint0_linear_85_318)"/>
<path d="M38.6916 17.6335L19.041 15.5593C15.3836 15.1733 12.7615 19.0227 14.4547 22.2941C15.1231 23.5861 15.4616 25.0245 15.4399 26.4806C15.4182 27.9367 15.3348 29.1005 14.3302 30.6386C13.3255 32.1768 10.4039 35.6932 10.4039 35.6932C10.3287 35.8284 10.2881 35.9801 10.2858 36.1348C10.2834 36.2895 10.3193 36.4423 10.3903 36.5796C10.4613 36.7169 10.5652 36.8343 10.6926 36.9214C10.8201 37.0085 10.9671 37.0625 11.1206 37.0787C11.1206 37.0787 15.3181 36.8497 17.079 36.622C18.84 36.3944 20.1274 37.3358 21.4201 38.2197C22.7127 39.1036 23.7664 40.2949 24.4871 41.6872C26.1845 44.9599 30.8314 45.0227 32.6212 41.7963L42.2354 24.4751C42.6056 23.8068 42.8051 23.0573 42.8161 22.2935C42.827 21.5296 42.6491 20.7752 42.2981 20.0976C41.9471 19.4201 41.4341 18.8404 40.8047 18.4104C40.1754 17.9804 39.4494 17.7135 38.6916 17.6335Z" fill="black"/>
<path d="M82.9521 46.7287C79.8349 46.7287 77.1606 46.2693 74.9294 45.3506C72.6981 44.4318 71.0082 43.2341 69.8598 41.7576C68.7441 40.2482 68.1535 38.6075 68.0879 36.8356C68.0879 36.5731 68.1863 36.3435 68.3832 36.1466C68.6129 35.9169 68.8754 35.802 69.1707 35.802H75.3723C75.7661 35.802 76.0778 35.8841 76.3075 36.0481C76.57 36.1794 76.8325 36.3927 77.095 36.688C77.5216 37.5411 78.2106 38.2466 79.1622 38.8044C80.1138 39.3622 81.3771 39.6411 82.9521 39.6411C84.8224 39.6411 86.2498 39.3458 87.2342 38.7552C88.2185 38.1646 88.7107 37.3606 88.7107 36.3434C88.7107 35.6216 88.4482 35.0309 87.9232 34.5716C87.431 34.1122 86.6435 33.702 85.5607 33.3411C84.4779 32.9801 82.8701 32.57 80.7372 32.1106C76.7997 31.2903 73.8465 30.0926 71.8778 28.5176C69.9418 26.9098 68.9738 24.6293 68.9738 21.6761C68.9738 19.6745 69.5317 17.8862 70.6473 16.3112C71.7629 14.7362 73.3543 13.5057 75.4216 12.6198C77.4888 11.7338 79.9005 11.2909 82.6568 11.2909C85.5115 11.2909 87.9889 11.7831 90.0889 12.7675C92.1889 13.7518 93.7803 14.9987 94.8631 16.5081C95.9788 17.9847 96.5694 19.4449 96.635 20.8886C96.635 21.1839 96.5366 21.43 96.3397 21.6269C96.1428 21.8238 95.8967 21.9222 95.6014 21.9222H89.1045C88.7107 21.9222 88.3826 21.8566 88.1201 21.7253C87.8904 21.5941 87.6771 21.3808 87.4803 21.0855C87.2834 20.3308 86.742 19.691 85.856 19.1659C85.0029 18.6409 83.9365 18.3784 82.6568 18.3784C81.1802 18.3784 80.0482 18.6409 79.2607 19.1659C78.4731 19.691 78.0794 20.4621 78.0794 21.4793C78.0794 22.1683 78.2927 22.7425 78.7192 23.2019C79.1786 23.6613 79.9005 24.0879 80.8849 24.4816C81.9021 24.8426 83.3458 25.2199 85.2162 25.6137C88.2678 26.1715 90.6959 26.877 92.5006 27.7301C94.3381 28.5504 95.6835 29.6332 96.5366 30.9786C97.3897 32.2911 97.8163 33.9481 97.8163 35.9497C97.8163 38.1482 97.1764 40.0677 95.8967 41.7083C94.6499 43.3162 92.8944 44.5631 90.6303 45.449C88.399 46.3021 85.8396 46.7287 82.9521 46.7287Z" fill="black"/>
<path d="M115.293 46.7102C108.501 46.7102 105.105 43.4781 105.105 37.014V27.5639H101.266C100.905 27.5639 100.593 27.4491 100.331 27.2194C100.101 26.9897 99.9862 26.6944 99.9862 26.3334V22.3467C99.9862 21.9857 100.101 21.6904 100.331 21.4607C100.593 21.231 100.905 21.1162 101.266 21.1162H105.105V12.5195C105.105 12.1586 105.22 11.8633 105.449 11.6336C105.712 11.4039 106.007 11.2891 106.335 11.2891H112.045C112.406 11.2891 112.701 11.4039 112.931 11.6336C113.161 11.8633 113.275 12.1586 113.275 12.5195V21.1162H119.428C119.789 21.1162 120.084 21.231 120.314 21.4607C120.576 21.6904 120.707 21.9857 120.707 22.3467V26.3334C120.707 26.6944 120.576 26.9897 120.314 27.2194C120.084 27.4491 119.789 27.5639 119.428 27.5639H113.275V36.3249C113.275 38.7531 114.211 39.9672 116.081 39.9672H119.871C120.232 39.9672 120.527 40.082 120.757 40.3117C120.986 40.5414 121.101 40.8367 121.101 41.1976V45.4797C121.101 45.8078 120.986 46.1032 120.757 46.3657C120.527 46.5953 120.232 46.7102 119.871 46.7102H115.293Z" fill="black"/>
<path d="M132.564 46.7287C130.825 46.7287 129.233 46.4006 127.79 45.7443C126.379 45.0552 125.263 44.1365 124.443 42.988C123.655 41.8068 123.261 40.5107 123.261 39.0997C123.261 36.8356 124.18 35.0145 126.018 33.6364C127.888 32.2583 130.448 31.3067 133.696 30.7817L139.848 29.8465V29.1574C139.848 27.9106 139.586 26.9918 139.061 26.4012C138.536 25.8105 137.65 25.5152 136.403 25.5152C135.648 25.5152 135.025 25.6465 134.533 25.909C134.041 26.1715 133.532 26.5324 133.007 26.9918C132.548 27.3856 132.203 27.6481 131.973 27.7793C131.875 28.0418 131.694 28.1731 131.432 28.1731H126.067C125.739 28.1731 125.46 28.0746 125.23 27.8777C125.033 27.6481 124.951 27.3856 124.984 27.0902C125.017 26.2043 125.444 25.2199 126.264 24.1371C127.117 23.0543 128.397 22.1191 130.103 21.3316C131.842 20.5441 133.975 20.1503 136.501 20.1503C140.537 20.1503 143.523 21.0527 145.459 22.8574C147.395 24.6293 148.363 27.0246 148.363 30.0434V45.4982C148.363 45.8264 148.248 46.1217 148.019 46.3842C147.789 46.6139 147.494 46.7287 147.133 46.7287H141.423C141.095 46.7287 140.8 46.6139 140.537 46.3842C140.308 46.1217 140.193 45.8264 140.193 45.4982V43.2834C139.471 44.3006 138.454 45.1373 137.141 45.7935C135.862 46.417 134.336 46.7287 132.564 46.7287ZM134.877 41.1177C136.387 41.1177 137.601 40.6255 138.519 39.6411C139.471 38.6567 139.947 37.213 139.947 35.3098V34.6208L135.763 35.3591C132.81 35.8841 131.333 36.9177 131.333 38.4599C131.333 39.2802 131.678 39.9365 132.367 40.4286C133.056 40.888 133.893 41.1177 134.877 41.1177Z" fill="black"/>
<path d="M153.231 46.7171C152.87 46.7171 152.574 46.6022 152.345 46.3726C152.115 46.1429 152 45.8475 152 45.4866V22.3682C152 22.0073 152.115 21.7119 152.345 21.4823C152.574 21.2526 152.87 21.1377 153.231 21.1377H158.891C159.252 21.1377 159.547 21.269 159.777 21.5315C160.039 21.7612 160.17 22.0401 160.17 22.3682V24.337C161.975 22.2041 164.403 21.1377 167.455 21.1377H169.621C169.981 21.1377 170.277 21.2526 170.506 21.4823C170.736 21.7119 170.851 22.0073 170.851 22.3682V27.4378C170.851 27.7659 170.736 28.0612 170.506 28.3237C170.277 28.5534 169.981 28.6683 169.621 28.6683H164.846C163.501 28.6683 162.451 29.0456 161.696 29.8003C160.974 30.5222 160.613 31.6601 160.613 33.0054V45.4866C160.613 45.8475 160.482 46.1429 160.22 46.3726C159.99 46.6022 159.695 46.7171 159.334 46.7171H153.231Z" fill="black"/>
<path d="M188.329 46.727C181.537 46.727 178.141 43.4949 178.141 37.0308V27.5189H174.302C173.941 27.5189 173.629 27.404 173.367 27.1743C173.137 26.9446 173.022 26.6493 173.022 26.2884V22.3016C173.022 21.9407 173.137 21.6454 173.367 21.4157C173.629 21.186 173.941 21.0712 174.302 21.0712H178.141V12.5214C178.141 12.1604 178.256 11.8651 178.486 11.6354C178.748 11.4057 179.043 11.2909 179.372 11.2909H185.081C185.442 11.2909 185.737 11.4057 185.967 11.6354C186.197 11.8651 186.311 12.1604 186.311 12.5214V21.0712H192.464C192.825 21.0712 193.12 21.186 193.35 21.4157C193.612 21.6454 193.744 21.9407 193.744 22.3016V26.2884C193.744 26.6493 193.612 26.9446 193.35 27.1743C193.12 27.404 192.825 27.5189 192.464 27.5189H186.311V36.3417C186.311 38.7699 187.247 39.9839 189.117 39.9839H192.907C193.268 39.9839 193.563 40.0988 193.793 40.3285C194.022 40.5582 194.137 40.8535 194.137 41.2144V45.4965C194.137 45.8246 194.022 46.1199 193.793 46.3824C193.563 46.6121 193.268 46.727 192.907 46.727H188.329Z" fill="black"/>
<path d="M221.224 46.7287C216.597 46.7287 212.971 45.5967 210.346 43.3326C207.754 41.0685 206.458 37.656 206.458 33.095V12.5423C206.458 12.1813 206.573 11.886 206.802 11.6563C207.065 11.4266 207.36 11.3118 207.688 11.3118H214.038C214.399 11.3118 214.694 11.4266 214.924 11.6563C215.186 11.886 215.317 12.1813 215.317 12.5423V33.0458C215.317 35.1786 215.81 36.7864 216.794 37.8692C217.811 38.9193 219.271 39.4443 221.174 39.4443C223.045 39.4443 224.488 38.9028 225.506 37.82C226.523 36.7372 227.031 35.1458 227.031 33.0458V12.5423C227.031 12.1813 227.146 11.886 227.376 11.6563C227.639 11.4266 227.934 11.3118 228.262 11.3118H234.66C235.021 11.3118 235.317 11.4266 235.546 11.6563C235.776 11.886 235.891 12.1813 235.891 12.5423V33.095C235.891 37.656 234.578 41.0685 231.953 43.3326C229.361 45.5967 225.785 46.7287 221.224 46.7287Z" fill="black"/>
<path d="M243.951 46.7269C243.622 46.7269 243.327 46.6121 243.065 46.3824C242.835 46.1199 242.72 45.8246 242.72 45.4965V12.5423C242.72 12.1813 242.835 11.886 243.065 11.6563C243.327 11.4266 243.622 11.3118 243.951 11.3118H250.546C250.907 11.3118 251.202 11.4266 251.432 11.6563C251.694 11.886 251.826 12.1813 251.826 12.5423V45.4965C251.826 45.8574 251.694 46.1527 251.432 46.3824C251.202 46.6121 250.907 46.7269 250.546 46.7269H243.951Z" fill="black"/>
<path d="M278.231 36.3811H281.557L284.136 27.7024H284.248L286.826 36.3811H290.159L294.317 22.0703H290.502L288.335 31.4688H288.217L285.75 22.0703H282.633L280.167 31.4478H280.048L277.889 22.0703H274.066L278.231 36.3811Z" fill="black"/>
<path d="M295.746 36.3811H305.724V33.5721H299.205V30.6303H305.214V27.8142H299.205V24.8794H305.724V22.0703H295.746V36.3811Z" fill="black"/>
<path d="M307.89 36.3811H314.312C317.478 36.3811 319.294 34.6901 319.294 32.3772C319.294 30.3088 317.792 29.0091 316.059 28.9322V28.7925C317.631 28.4641 318.735 27.3251 318.735 25.6899C318.735 23.5307 317.072 22.0703 313.858 22.0703H307.89V36.3811ZM311.349 33.5931V30.183H313.55C314.871 30.183 315.682 30.8818 315.682 31.9789C315.682 32.9921 314.983 33.5931 313.488 33.5931H311.349ZM311.349 27.954V24.8165H313.32C314.473 24.8165 315.207 25.4104 315.207 26.3608C315.207 27.367 314.396 27.954 313.264 27.954H311.349Z" fill="black"/>
<path fill-rule="evenodd" clip-rule="evenodd" d="M324.879 13.7507H268.798C267.44 13.7507 266.339 14.8519 266.339 16.2104V41.791C266.339 43.1494 267.44 44.2507 268.798 44.2507H324.879C326.237 44.2507 327.339 43.1494 327.339 41.791V16.2104C327.339 14.8519 326.237 13.7507 324.879 13.7507ZM268.798 11.291C266.081 11.291 263.879 13.4935 263.879 16.2104V41.791C263.879 44.5079 266.081 46.7103 268.798 46.7103H324.879C327.596 46.7103 329.798 44.5079 329.798 41.791V16.2104C329.798 13.4935 327.596 11.291 324.879 11.291H268.798Z" fill="black"/>
<defs>
<linearGradient id="paint0_linear_85_318" x1="27.995" y1="0.468975" x2="27.995" y2="57.5334" gradientUnits="userSpaceOnUse">
<stop stop-color="#FCD34D"/>
<stop offset="1" stop-color="#F59E0B"/>
</linearGradient>
</defs>
</svg>
