<svg width="186" height="32" viewBox="0 0 186 32" fill="none" xmlns="http://www.w3.org/2000/svg">
<path d="M14.0392 0.241747C11.8657 -0.168764 9.61441 -0.066908 7.51552 0.627566C4.21361 1.72098 0.367345 4.50736 0.0360655 11.5285C-0.553395 24.0113 6.14297 30.5733 15.7104 31.9074C22.9426 32.916 27.82 25.4318 29.7688 21.7218C30.7698 19.8345 31.2801 17.7291 31.2534 15.5966C31.1709 10.7422 28.6194 2.99418 14.0392 0.241747Z" fill="url(#paint0_linear_2185_1171)"/>
<path d="M21.6402 9.62514L10.5918 8.462C8.53545 8.24554 7.06123 10.4042 8.01319 12.2387C8.38902 12.9632 8.57933 13.7698 8.56711 14.5863C8.55489 15.4029 8.50802 16.0555 7.94317 16.9181C7.37833 17.7806 5.73567 19.7525 5.73567 19.7525C5.69339 19.8283 5.67057 19.9134 5.66924 20.0001C5.6679 20.0869 5.6881 20.1726 5.72802 20.2495C5.76794 20.3265 5.82634 20.3924 5.898 20.4412C5.96965 20.4901 6.05232 20.5204 6.13862 20.5294C6.13862 20.5294 8.49863 20.401 9.48871 20.2733C10.4788 20.1457 11.2026 20.6736 11.9294 21.1693C12.6562 21.6649 13.2487 22.333 13.6538 23.1138C14.6082 24.9489 17.2209 24.9842 18.2272 23.1749L23.6327 13.4617C23.8409 13.087 23.953 12.6667 23.9592 12.2383C23.9653 11.81 23.8653 11.3869 23.668 11.007C23.4706 10.627 23.1822 10.3019 22.8283 10.0608C22.4745 9.81969 22.0663 9.67001 21.6402 9.62514Z" fill="#1E293B"/>
<path d="M46.5272 25.9418C44.7746 25.9418 43.271 25.6842 42.0165 25.169C40.762 24.6538 39.8119 23.9822 39.1662 23.1542C38.5389 22.3077 38.2068 21.3877 38.1699 20.3941C38.1699 20.2469 38.2253 20.1181 38.336 20.0077C38.4651 19.8789 38.6127 19.8145 38.7787 19.8145H42.2656C42.4869 19.8145 42.6622 19.8605 42.7913 19.9525C42.9389 20.0261 43.0865 20.1457 43.2341 20.3113C43.4739 20.7897 43.8614 21.1853 44.3964 21.4981C44.9314 21.8109 45.6417 21.9673 46.5272 21.9673C47.5788 21.9673 48.3813 21.8017 48.9348 21.4705C49.4882 21.1393 49.765 20.6885 49.765 20.1181C49.765 19.7133 49.6174 19.3821 49.3222 19.1245C49.0455 18.8669 48.6027 18.6369 47.9939 18.4345C47.3851 18.2321 46.4811 18.002 45.2819 17.7444C43.0681 17.2844 41.4077 16.6128 40.3008 15.7296C39.2123 14.828 38.668 13.5491 38.668 11.8931C38.668 10.7707 38.9817 9.76786 39.6089 8.88464C40.2362 8.00142 41.131 7.3114 42.2932 6.81459C43.4555 6.31778 44.8115 6.06938 46.3612 6.06938C47.9662 6.06938 49.3591 6.34538 50.5398 6.8974C51.7206 7.44941 52.6153 8.14862 53.2241 8.99504C53.8514 9.82306 54.1835 10.6419 54.2204 11.4515C54.2204 11.6171 54.165 11.7551 54.0543 11.8655C53.9436 11.9759 53.8053 12.0311 53.6392 12.0311H49.9864C49.765 12.0311 49.5805 11.9943 49.4329 11.9207C49.3038 11.8471 49.1838 11.7275 49.0732 11.5619C48.9625 11.1387 48.6581 10.7799 48.1599 10.4855C47.6803 10.1911 47.0807 10.0439 46.3612 10.0439C45.531 10.0439 44.8945 10.1911 44.4517 10.4855C44.009 10.7799 43.7876 11.2123 43.7876 11.7827C43.7876 12.1691 43.9075 12.4911 44.1473 12.7487C44.4056 13.0063 44.8115 13.2455 45.3649 13.4663C45.9369 13.6687 46.7486 13.8804 47.8002 14.1012C49.5159 14.414 50.8811 14.8096 51.8958 15.288C52.9289 15.748 53.6853 16.3552 54.165 17.1096C54.6447 17.8456 54.8845 18.7749 54.8845 19.8973C54.8845 21.1301 54.5248 22.2065 53.8053 23.1266C53.1042 24.0282 52.1172 24.7274 50.8442 25.2242C49.5897 25.7026 48.1507 25.9418 46.5272 25.9418Z" fill="white"/>
<path d="M64.7109 25.9314C60.892 25.9314 58.9825 24.119 58.9825 20.4941V15.1948H56.824C56.6211 15.1948 56.4458 15.1304 56.2982 15.0016C56.1691 14.8728 56.1045 14.7072 56.1045 14.5048V12.2691C56.1045 12.0667 56.1691 11.9011 56.2982 11.7723C56.4458 11.6435 56.6211 11.5791 56.824 11.5791H58.9825V6.75837C58.9825 6.55597 59.0471 6.39037 59.1762 6.26156C59.3238 6.13276 59.4899 6.06836 59.6744 6.06836H62.8844C63.0874 6.06836 63.2534 6.13276 63.3826 6.26156C63.5117 6.39037 63.5763 6.55597 63.5763 6.75837V11.5791H67.0354C67.2384 11.5791 67.4044 11.6435 67.5335 11.7723C67.6811 11.9011 67.7549 12.0667 67.7549 12.2691V14.5048C67.7549 14.7072 67.6811 14.8728 67.5335 15.0016C67.4044 15.1304 67.2384 15.1948 67.0354 15.1948H63.5763V20.1077C63.5763 21.4693 64.1021 22.1502 65.1536 22.1502H67.2845C67.4874 22.1502 67.6535 22.2146 67.7826 22.3434C67.9117 22.4722 67.9763 22.6378 67.9763 22.8402V25.2414C67.9763 25.4254 67.9117 25.591 67.7826 25.7382C67.6535 25.867 67.4874 25.9314 67.2845 25.9314H64.7109Z" fill="white"/>
<path d="M74.4211 25.9418C73.4434 25.9418 72.5486 25.7578 71.7368 25.3898C70.9435 25.0034 70.3163 24.4882 69.8551 23.8442C69.4123 23.1818 69.1909 22.4549 69.1909 21.6637C69.1909 20.3941 69.7075 19.3729 70.7406 18.6001C71.7922 17.8272 73.2312 17.2936 75.0576 16.9992L78.5168 16.4748V16.0884C78.5168 15.3892 78.3692 14.874 78.074 14.5428C77.7788 14.2116 77.2807 14.046 76.5796 14.046C76.1553 14.046 75.8048 14.1196 75.5281 14.2668C75.2513 14.414 74.9654 14.6164 74.6702 14.874C74.4119 15.0948 74.2182 15.242 74.0891 15.3156C74.0337 15.4628 73.9323 15.5364 73.7847 15.5364H70.7683C70.5838 15.5364 70.427 15.4812 70.2978 15.3708C70.1871 15.242 70.141 15.0948 70.1595 14.9292C70.1779 14.4324 70.4178 13.8804 70.879 13.2731C71.3586 12.6659 72.0781 12.1415 73.0375 11.6999C74.0153 11.2583 75.2144 11.0375 76.635 11.0375C78.9042 11.0375 80.583 11.5435 81.6715 12.5555C82.76 13.5491 83.3042 14.8924 83.3042 16.5852V25.2518C83.3042 25.4358 83.2397 25.6014 83.1105 25.7486C82.9814 25.8774 82.8153 25.9418 82.6124 25.9418H79.4023C79.2178 25.9418 79.0518 25.8774 78.9042 25.7486C78.7751 25.6014 78.7105 25.4358 78.7105 25.2518V24.0098C78.3046 24.5802 77.7327 25.0494 76.9947 25.4174C76.2752 25.767 75.4174 25.9418 74.4211 25.9418ZM75.7218 22.7954C76.5704 22.7954 77.253 22.5193 77.7696 21.9673C78.3046 21.4153 78.5721 20.6057 78.5721 19.5385V19.1521L76.2199 19.5661C74.5595 19.8605 73.7293 20.4401 73.7293 21.3049C73.7293 21.7649 73.923 22.1329 74.3104 22.4089C74.6979 22.6666 75.1683 22.7954 75.7218 22.7954Z" fill="white"/>
<path d="M86.0408 25.9353C85.8379 25.9353 85.6718 25.8709 85.5427 25.7421C85.4135 25.6133 85.349 25.4477 85.349 25.2453V12.2812C85.349 12.0788 85.4135 11.9132 85.5427 11.7844C85.6718 11.6556 85.8379 11.5912 86.0408 11.5912H89.2232C89.4262 11.5912 89.5922 11.6648 89.7213 11.812C89.8689 11.9408 89.9427 12.0972 89.9427 12.2812V13.3852C90.9574 12.1892 92.3226 11.5912 94.0383 11.5912H95.256C95.4589 11.5912 95.6249 11.6556 95.7541 11.7844C95.8832 11.9132 95.9478 12.0788 95.9478 12.2812V15.1241C95.9478 15.3081 95.8832 15.4737 95.7541 15.6209C95.6249 15.7497 95.4589 15.8141 95.256 15.8141H92.5717C91.8153 15.8141 91.2249 16.0257 90.8006 16.4489C90.3947 16.8537 90.1918 17.4918 90.1918 18.2462V25.2453C90.1918 25.4477 90.118 25.6133 89.9704 25.7421C89.8413 25.8709 89.6752 25.9353 89.4723 25.9353H86.0408Z" fill="white"/>
<path d="M105.775 25.9409C101.956 25.9409 100.047 24.1284 100.047 20.5035V15.1695H97.8881C97.6852 15.1695 97.5099 15.1051 97.3623 14.9763C97.2332 14.8475 97.1686 14.6819 97.1686 14.4795V12.2439C97.1686 12.0415 97.2332 11.8759 97.3623 11.7471C97.5099 11.6183 97.6852 11.5539 97.8881 11.5539H100.047V6.75939C100.047 6.55699 100.111 6.39138 100.24 6.26258C100.388 6.13378 100.554 6.06938 100.738 6.06938H103.949C104.151 6.06938 104.317 6.13378 104.447 6.26258C104.576 6.39138 104.64 6.55699 104.64 6.75939V11.5539H108.099C108.302 11.5539 108.468 11.6183 108.598 11.7471C108.745 11.8759 108.819 12.0415 108.819 12.2439V14.4795C108.819 14.6819 108.745 14.8475 108.598 14.9763C108.468 15.1051 108.302 15.1695 108.099 15.1695H104.64V20.1171C104.64 21.4788 105.166 22.1596 106.218 22.1596H108.349C108.551 22.1596 108.718 22.224 108.847 22.3528C108.976 22.4816 109.04 22.6472 109.04 22.8496V25.2508C109.04 25.4349 108.976 25.6005 108.847 25.7477C108.718 25.8765 108.551 25.9409 108.349 25.9409H105.775Z" fill="white"/>
<path d="M124.269 25.9418C121.668 25.9418 119.63 25.307 118.154 24.0374C116.696 22.7678 115.968 20.8541 115.968 18.2965V6.77113C115.968 6.56872 116.032 6.40312 116.161 6.27431C116.309 6.14551 116.475 6.08111 116.659 6.08111H120.229C120.432 6.08111 120.598 6.14551 120.727 6.27431C120.875 6.40312 120.949 6.56872 120.949 6.77113V18.2689C120.949 19.4649 121.225 20.3665 121.779 20.9737C122.351 21.5625 123.172 21.8569 124.242 21.8569C125.293 21.8569 126.105 21.5533 126.677 20.9461C127.249 20.3389 127.535 19.4465 127.535 18.2689V6.77113C127.535 6.56872 127.599 6.40312 127.729 6.27431C127.876 6.14551 128.042 6.08111 128.227 6.08111H131.824C132.027 6.08111 132.193 6.14551 132.322 6.27431C132.451 6.40312 132.516 6.56872 132.516 6.77113V18.2965C132.516 20.8541 131.778 22.7678 130.302 24.0374C128.845 25.307 126.834 25.9418 124.269 25.9418Z" fill="white"/>
<path d="M137.048 25.9408C136.863 25.9408 136.697 25.8764 136.549 25.7476C136.42 25.6004 136.356 25.4348 136.356 25.2508V6.77113C136.356 6.56872 136.42 6.40312 136.549 6.27431C136.697 6.14551 136.863 6.08111 137.048 6.08111H140.756C140.959 6.08111 141.125 6.14551 141.254 6.27431C141.401 6.40312 141.475 6.56872 141.475 6.77113V25.2508C141.475 25.4532 141.401 25.6188 141.254 25.7476C141.125 25.8764 140.959 25.9408 140.756 25.9408H137.048Z" fill="white"/>
<path d="M156.32 20.1384H158.19L159.64 15.2716H159.703L161.153 20.1384H163.027L165.364 12.1133H163.219L162.001 17.3837H161.934L160.547 12.1133H158.795L157.408 17.3719H157.342L156.128 12.1133H153.979L156.32 20.1384Z" fill="white"/>
<path d="M166.168 20.1384H171.778V18.5631H168.112V16.9134H171.491V15.3343H168.112V13.6885H171.778V12.1133H166.168V20.1384Z" fill="white"/>
<path d="M172.996 20.1384H176.606C178.386 20.1384 179.408 19.1901 179.408 17.8931C179.408 16.7332 178.563 16.0043 177.589 15.9612V15.8829C178.473 15.6987 179.093 15.06 179.093 14.1431C179.093 12.9322 178.158 12.1133 176.351 12.1133H172.996V20.1384ZM174.941 18.5749V16.6627H176.178C176.921 16.6627 177.376 17.0545 177.376 17.6697C177.376 18.2379 176.984 18.5749 176.143 18.5749H174.941ZM174.941 15.4127V13.6532H176.049C176.697 13.6532 177.109 13.9863 177.109 14.5192C177.109 15.0835 176.654 15.4127 176.017 15.4127H174.941Z" fill="white"/>
<path fill-rule="evenodd" clip-rule="evenodd" d="M182.547 7.44767H151.016C150.252 7.44767 149.633 8.06521 149.633 8.82698V23.1718C149.633 23.9336 150.252 24.5511 151.016 24.5511H182.547C183.311 24.5511 183.93 23.9336 183.93 23.1718V8.82698C183.93 8.06521 183.311 7.44767 182.547 7.44767ZM151.016 6.06836C149.488 6.06836 148.25 7.30344 148.25 8.82698V23.1718C148.25 24.6954 149.488 25.9304 151.016 25.9304H182.547C184.074 25.9304 185.313 24.6954 185.313 23.1718V8.82698C185.313 7.30344 184.074 6.06836 182.547 6.06836H151.016Z" fill="white"/>
<defs>
<linearGradient id="paint0_linear_2185_1171" x1="15.6269" y1="0.000126378" x2="15.6269" y2="32.0001" gradientUnits="userSpaceOnUse">
<stop stop-color="#FCD34D"/>
<stop offset="1" stop-color="#F59E0B"/>
</linearGradient>
</defs>
</svg>
